# Blender 4.3.2
# www.blender.org
mtllib P05-car.mtl
o Car_Cube
v 2.024981 0.532987 0.995439
v -2.111740 0.582986 0.995439
v 2.024981 0.532987 -1.004561
v -2.111740 0.582986 -1.004561
v 0.787482 0.607987 0.964189
v -1.537519 0.607987 0.964189
v -1.537519 0.607987 -0.973311
v 0.787482 0.607987 -0.973311
v 0.188731 1.107986 0.673564
v -1.188769 1.107986 0.673564
v -1.188769 1.107986 -0.682686
v 0.188731 1.107986 -0.682686
v -2.125018 0.672986 -0.004561
v -1.637519 0.672986 -0.004561
v 0.837482 0.672987 -0.004561
v -1.288769 1.172986 -0.004561
v 0.238732 1.172987 -0.004561
v 2.074982 0.557987 -0.974465
v 2.074982 0.557987 0.965177
v -2.125018 0.607986 0.963075
v -2.125018 0.607986 -0.972995
v -0.375018 0.582987 0.995439
v -0.375018 0.582987 -1.004561
v -0.375018 0.607987 0.964189
v -0.375018 0.607987 -0.973311
v -0.500018 1.132987 0.673564
v -0.500018 1.132987 -0.682686
v -0.500018 1.197987 -0.004561
v -1.612519 0.657986 -0.488936
v -1.263769 1.157986 -0.343624
v 2.124981 0.607987 -0.489513
v 0.837482 0.657987 -0.488936
v 0.238732 1.157986 -0.343624
v -2.125018 0.657986 -0.488778
v -0.500018 1.182986 -0.343624
v 0.837482 0.657987 0.479814
v -2.125018 0.657986 0.479257
v 0.238732 1.157986 0.334501
v -1.612519 0.657986 0.479814
v -1.263769 1.157986 0.334501
v 2.124981 0.607987 0.480308
v -0.500018 1.182986 0.334501
v -2.175019 0.270486 -1.004561
v 2.124981 0.270487 -1.004561
v -0.375018 0.270486 -1.004561
v 2.124981 0.270487 0.995439
v -2.175019 0.270486 0.995439
v -0.375018 0.270486 0.995439
v -2.175019 0.270486 -0.004561
v -2.175019 0.270486 -0.904561
v 2.224982 0.270485 -0.504561
v -2.175019 0.270486 0.895439
v 2.224982 0.270485 0.495439
v -2.175019 0.218403 0.995439
v -2.175019 0.060069 0.995439
v -2.175019 0.218403 -1.004561
v -2.175019 0.060069 -1.004561
v -0.375018 0.218403 -1.004561
v -0.375018 0.060069 -1.004561
v -0.375018 0.218403 0.995439
v -0.375018 0.060069 0.995439
v 2.102613 0.539691 0.518374
v 2.060113 0.532191 0.930513
v 2.060113 0.532191 -0.939786
v 2.102613 0.539691 -0.527578
v 2.187613 0.287815 0.531235
v 2.102613 0.287816 0.956236
v 2.102613 0.287816 -0.965369
v 2.187613 0.287815 -0.540369
v 0.822513 0.669487 0.455595
v 0.772513 0.621987 0.915751
v 0.253701 1.144486 0.317548
v 0.203700 1.096987 0.639657
v 0.772513 0.621987 -0.924874
v 0.203700 1.096987 -0.648780
v 0.822513 0.669487 -0.464718
v 0.822513 0.684487 -0.004561
v 0.253701 1.144486 -0.326671
v 0.253701 1.159487 -0.004561
v -0.375018 0.582987 0.995439
v 0.711263 0.633612 0.949657
v 0.172388 1.083611 0.688095
v -0.334987 0.633612 0.949657
v -0.447487 1.106112 0.688095
v -0.427549 0.633612 0.949657
v -1.473799 0.633612 0.949657
v -0.540049 1.106112 0.688095
v -1.159925 1.083611 0.688095
v -0.427549 0.633612 0.949657
v -1.473799 0.633612 0.949657
v -0.540049 1.106112 0.688095
v -1.159925 1.083611 0.688095
v -0.432277 0.635918 0.948350
v -1.468065 0.635917 0.948350
v -0.543652 1.103693 0.689403
v -1.157328 1.081417 0.689403
v 0.704403 0.635918 0.948350
v 0.170917 1.081418 0.689403
v -0.331384 0.635918 0.948350
v -0.442759 1.103693 0.689403
v -0.334987 0.633612 -0.958780
v 0.711262 0.633612 -0.958780
v -0.447487 1.106112 -0.697218
v 0.172387 1.083611 -0.697218
v -1.159925 1.083611 -0.697218
v -1.473800 0.633612 -0.958780
v -0.427549 0.633612 -0.958780
v -0.540050 1.106112 -0.697218
v 1.424981 0.545487 -1.004561
v 1.424981 0.545487 0.995439
v 1.491778 0.370487 -1.004561
v 1.491778 0.370487 0.995439
v 0.974982 0.554862 0.995439
v 1.081621 0.370487 -1.004561
v 0.876544 0.060070 -1.004561
v 0.876544 -0.092013 0.970439
v 0.974982 0.554862 -1.004561
v 1.081622 0.370487 0.995439
v 0.876544 0.060070 0.995439
v -1.587518 0.582986 0.995439
v -1.587519 0.582986 -1.004561
v -1.524707 0.370486 -1.004561
v -1.524707 0.370486 0.995439
v -1.687518 0.060069 -1.004561
v -1.687518 0.060069 0.995439
v -1.212238 0.633612 0.949657
v -1.004956 1.089236 0.688095
v -1.212238 0.633612 0.949657
v -1.004956 1.089236 0.688095
v -0.959393 0.582986 -1.004561
v -1.022207 0.370486 0.995439
v -0.859393 0.060069 0.995439
v -0.959393 0.582986 0.995439
v -1.022207 0.370486 -1.004561
v -0.859393 0.060069 -1.004561
v -1.016065 0.633612 0.949657
v -0.888729 1.093455 0.688095
v -1.016065 0.633612 0.949657
v -0.888729 1.093455 0.688095
v -0.888846 1.091162 0.689403
v -1.603800 0.669637 -0.464718
v -1.528800 0.622137 -0.924874
v -1.272488 1.144636 -0.326671
v -1.197488 1.097136 -0.648780
v -1.197488 1.097136 0.639657
v -1.528800 0.622137 0.915751
v -1.603800 0.669637 0.455595
v -1.628800 0.683886 -0.004561
v -1.272488 1.144636 0.317548
v -1.297488 1.158886 -0.004561
v 2.139982 0.607987 -0.004561
v 2.124981 0.607987 -0.489513
v 2.124981 0.607987 0.480308
v 2.239982 0.270484 -0.004561
v 2.224982 0.270485 -0.504561
v 2.224982 0.270485 0.495439
v -2.122766 0.584226 -0.004561
v 1.491778 0.345487 1.045439
v 0.876544 0.035070 1.045439
v -1.524707 0.345486 -1.054561
v -1.022207 0.345486 -1.054561
v 1.461017 0.322206 1.045439
v 1.112383 0.322206 1.045439
v -1.059893 0.329959 -1.054561
vn -0.9931 -0.1173 -0.0009
vn -0.9931 -0.1174 -0.0009
vn -0.9931 -0.1173 -0.0000
vn 0.0057 0.4853 0.8743
vn 0.0033 0.4894 0.8721
vn 0.0066 0.4855 0.8742
vn -0.5263 0.8332 0.1696
vn -0.5197 0.8358 0.1772
vn -0.5741 0.7854 0.2313
vn -0.8136 0.5810 -0.0233
vn 0.0057 0.4853 -0.8743
vn -0.0030 0.4886 -0.8725
vn -0.0065 0.4831 -0.8755
vn 0.4466 0.1701 0.8784
vn 0.0129 0.6370 0.7707
vn 0.0129 0.6371 0.7706
vn 0.0129 0.6372 0.7706
vn 0.0177 0.5032 -0.8640
vn 0.0069 0.5087 -0.8609
vn 0.0129 0.5056 -0.8627
vn -0.0024 0.4933 0.8698
vn -0.0065 0.4831 0.8755
vn -0.0061 0.4834 0.8754
vn -0.7573 0.6503 0.0602
vn -0.7561 0.6511 0.0663
vn -0.7757 0.6237 0.0964
vn -0.0000 -0.0000 -1.0000
vn -0.0000 -0.0000 1.0000
vn 0.8831 0.1054 -0.4572
vn 0.4447 0.1694 -0.8795
vn 0.4951 0.8631 0.0990
vn 0.4952 0.8631 0.0990
vn -1.0000 -0.0000 -0.0000
vn 0.6657 0.2425 0.7057
vn 0.6658 0.2425 0.7057
vn 0.9283 -0.3648 -0.0723
vn 0.9283 -0.3647 -0.0723
vn 0.9282 -0.3649 -0.0723
vn 0.4952 0.8631 -0.0990
vn 0.9283 -0.3647 0.0724
vn 0.9283 -0.3648 0.0723
vn 0.8830 0.1057 0.4572
vn 0.6658 0.2423 -0.7056
vn 0.6659 0.2423 -0.7056
vn 0.6658 0.2423 -0.7057
vn -0.0000 0.7809 -0.6247
vn -0.0002 0.7830 -0.6220
vn -0.0001 0.7817 -0.6236
vn -0.0003 0.7839 -0.6210
vn 0.0129 0.6365 -0.7711
vn 0.0129 0.6365 -0.7712
vn -0.0002 0.7826 0.6225
vn -0.0002 0.7827 0.6225
vn 0.0178 0.5034 0.8639
vn 0.0183 0.5029 0.8641
vn 0.0126 0.5058 0.8626
vn 0.0069 0.5086 0.8610
vn 0.0069 0.5086 0.8609
vn -0.0000 0.4933 0.8699
vn -0.0068 0.5061 0.8625
vn 0.0183 0.5029 -0.8641
vn -0.0023 0.4933 -0.8698
vn 0.0065 0.4855 -0.8742
vn 0.0029 0.4898 -0.8718
vn -0.0000 0.4933 -0.8699
vn -0.0068 0.5061 -0.8625
vn -0.0180 0.4962 -0.8680
vn -0.0180 0.4962 0.8680
vn -0.5263 0.8332 -0.1696
vn -0.5746 0.7843 -0.2338
vn -0.5185 0.8362 -0.1790
vn -0.8136 0.5810 0.0233
vn -0.7573 0.6503 -0.0602
vn -0.7766 0.6229 -0.0945
vn -0.7557 0.6515 -0.0673
vn -0.9931 -0.1174 0.0009
vn -0.9931 -0.1173 0.0009
vn -0.9834 0.1814 -0.0000
vn -0.9834 0.1814 0.0055
vn -0.9834 0.1814 -0.0055
vn 0.0006 0.9953 -0.0968
vn -0.5260 0.8505 -0.0000
vn 0.0009 1.0000 0.0002
vn 0.3776 0.9260 -0.0000
vn 0.7154 0.6936 0.0837
vn 0.6651 0.7468 0.0011
vn 0.4545 0.8799 0.1386
vn 0.7538 0.6449 0.1261
vn -0.2926 0.9493 -0.1147
vn -0.7402 0.6724 -0.0000
vn -0.4092 0.9124 -0.0000
vn -0.7390 0.6718 0.0515
vn -0.0005 0.8261 0.5635
vn 0.2718 0.8342 0.4798
vn 0.4545 0.8799 -0.1386
vn 0.2718 0.8342 -0.4798
vn -0.1397 0.8498 -0.5082
vn -0.7389 0.6718 -0.0515
vn 0.7173 0.6920 -0.0811
vn 0.0005 0.9953 0.0967
vn -0.7148 0.6448 0.2707
vn -0.2926 0.9493 0.1147
vn 0.6919 0.5055 -0.5154
vn 0.7570 0.6345 -0.1560
vn 0.5096 0.8556 -0.0912
vn -0.8825 0.4433 -0.1571
vn -0.8330 0.5533 -0.0024
vn 0.5215 0.8479 0.0951
vn 0.6024 0.7981 0.0078
vn 0.5582 0.8283 -0.0481
vn 0.6151 0.7884 -0.0008
vn 0.4723 0.8744 0.1113
vn 0.5562 0.8293 0.0547
vn 0.4703 0.8750 -0.1145
vn 0.6906 0.5205 0.5021
vn -0.3786 0.7983 0.4684
vn -0.0005 0.8261 -0.5635
vn -0.6103 0.7699 -0.1863
vn -0.6103 0.7699 0.1863
vn -0.8933 0.4009 -0.2032
vn -0.8887 0.4475 0.0998
vn -0.8931 0.3990 0.2079
vn 0.9587 0.2843 0.0003
vn 0.9582 0.2847 -0.0293
vn 0.9583 0.2844 -0.0291
vn 0.9582 0.2847 0.0291
vn 0.9586 0.2846 0.0001
vn -0.0000 -0.0000 -0.0000
vn -0.0032 0.4880 0.8728
vn -0.0013 0.4882 0.8727
vn -0.0000 0.4937 0.8696
vn -0.0032 0.4846 0.8748
vn 1.0000 -0.0000 -0.0000
vn -0.0008 0.4922 0.8705
vn -0.0037 0.4827 0.8758
vn -0.0064 0.5061 0.8625
vn -0.0061 0.5061 0.8624
vn 0.0181 0.5003 0.8657
vn 0.0176 0.5017 0.8648
vn 0.0122 0.5123 0.8587
vn -0.0177 0.4990 0.8664
vn -0.0196 0.4982 0.8668
vn -0.0180 0.4961 0.8681
vn -0.0123 0.4991 0.8664
vn -0.4856 -0.3217 -0.8129
vn -0.6360 -0.0930 0.7661
vn -0.8996 0.3873 -0.2017
vn -0.5262 0.8333 0.1696
vn 0.0129 0.6371 0.7707
vn 0.9283 -0.3649 0.0723
vn 0.0129 0.6366 -0.7711
vn -0.0069 0.5061 -0.8625
vn 0.4596 0.8681 -0.1875
vn 0.6938 0.6057 -0.3896
vn -0.5240 0.8355 -0.1652
vn -0.7134 0.6465 -0.2703
vn -0.5061 0.8468 0.1636
vn 0.6941 0.6057 0.3891
vn 0.4533 0.8897 -0.0548
vn -0.1399 0.8505 0.5070
vn -0.3786 0.7983 -0.4684
vn 0.9582 0.2846 0.0291
vn -0.0000 0.4938 0.8696
vn -0.0000 0.4937 0.8697
vn -0.0066 0.5061 0.8625
s 1
usemtl Body
f 34//1 4//2 157//3
f 26//4 83//5 84//6
f 39//7 146//8 147//9
f 11//10 142//10 144//10
f 27//11 107//12 108//13
f 1//14 46//14 19//14
f 5//15 24//16 80//17
f 12//18 102//19 104//20
f 24//21 87//22 85//23
f 14//24 147//25 148//26
f 130//27 45//27 134//27
f 109//27 44//27 111//27
f 113//28 48//28 118//28
f 120//28 47//28 123//28
f 19//29 67//29 63//29
f 18//30 44//30 3//30
f 46//31 66//32 67//31
f 47//33 52//33 54//33
f 58//27 135//27 45//27
f 115//27 58//27 45//27
f 53//34 62//34 66//35
f 18//36 65//37 64//38
f 51//39 68//39 69//39
f 41//40 63//41 62//40
f 44//42 64//42 68//42
f 31//43 69//44 65//45
f 130//46 121//46 7//47
f 7//47 4//48 21//49
f 109//50 117//51 8//51
f 6//52 20//53 2//53
f 9//54 84//55 82//56
f 5//57 82//56 81//58
f 24//21 81//59 83//5
f 10//60 86//60 88//60
f 24//21 85//23 136//59
f 27//61 104//20 103//61
f 25//62 103//63 101//64
f 8//65 101//64 102//65
f 7//66 105//66 106//66
f 11//67 108//67 105//67
f 56//33 50//33 43//33
f 60//28 119//28 48//28
f 1//28 112//28 46//28
f 117//27 111//27 114//27
f 23//27 114//27 45//27
f 110//28 118//28 112//28
f 133//28 123//28 131//28
f 4//27 122//27 43//27
f 137//68 87//68 26//68
f 22//28 131//28 48//28
f 25//62 106//65 107//12
f 121//27 134//27 122//27
f 7//69 141//70 142//71
f 6//72 145//72 146//72
f 29//73 148//74 141//75
f 2//76 20//76 37//77
f 157//78 49//78 52//79
f 50//80 49//78 157//78
f 132//28 60//28 48//28
f 124//27 56//27 43//27
f 47//28 54//28 125//28
f 35//81 16//82 28//83
f 17//84 72//85 79//86
f 38//87 73//88 72//85
f 29//89 13//90 14//91
f 37//92 14//91 13//90
f 38//87 26//93 9//94
f 33//95 28//83 17//84
f 12//96 35//81 33//95
f 7//97 34//98 29//89
f 33//95 79//86 78//99
f 17//84 42//100 38//87
f 20//101 39//102 37//92
f 8//103 75//104 74//105
f 16//82 143//106 150//107
f 9//94 71//108 73//88
f 15//109 76//110 77//111
f 36//112 77//111 70//113
f 32//114 74//105 76//110
f 5//115 70//113 71//108
f 12//96 78//99 75//104
f 42//100 10//116 26//93
f 27//117 30//118 35//81
f 28//83 40//119 42//100
f 30//118 144//120 143//106
f 10//116 149//121 145//122
f 40//119 150//107 149//121
f 151//123 155//124 152//125
f 153//126 154//127 151//123
f 157//3 13//3 34//1
f 34//1 21//2 4//2
f 26//4 24//21 83//5
f 39//7 6//148 146//8
f 11//10 7//10 142//10
f 27//11 25//62 107//12
f 80//17 1//149 5//15
f 1//149 19//149 5//15
f 12//18 8//19 102//19
f 24//21 26//4 87//22
f 14//24 39//24 147//25
f 130//27 23//27 45//27
f 109//27 3//27 44//27
f 113//28 22//28 48//28
f 120//28 2//28 47//28
f 19//29 46//29 67//29
f 46//31 53//32 66//32
f 58//27 59//27 135//27
f 135//27 134//27 45//27
f 45//27 114//27 115//27
f 115//27 59//27 58//27
f 53//34 41//34 62//34
f 18//36 31//37 65//37
f 51//39 44//39 68//39
f 41//40 19//150 63//41
f 44//42 18//42 64//42
f 31//43 51//44 69//44
f 121//46 4//48 7//47
f 7//47 25//46 130//46
f 25//46 23//46 130//46
f 117//51 23//151 8//51
f 23//151 25//151 8//51
f 8//51 18//151 109//50
f 18//151 3//151 109//50
f 2//53 80//52 6//52
f 80//52 24//52 6//52
f 9//54 26//55 84//55
f 5//57 9//54 82//56
f 24//21 5//59 81//59
f 10//60 6//60 86//60
f 86//59 6//59 126//59
f 6//59 24//21 136//59
f 126//59 6//59 136//59
f 27//61 12//18 104//20
f 25//62 27//11 103//63
f 8//65 25//62 101//64
f 7//66 11//152 105//66
f 11//67 27//67 108//67
f 60//28 61//28 119//28
f 119//28 118//28 48//28
f 1//28 110//28 112//28
f 117//27 109//27 111//27
f 23//27 117//27 114//27
f 110//28 113//28 118//28
f 133//28 120//28 123//28
f 4//27 121//27 122//27
f 26//68 10//68 137//68
f 10//68 88//68 127//68
f 137//68 10//68 127//68
f 22//28 133//28 131//28
f 25//62 7//65 106//65
f 121//27 130//27 134//27
f 7//69 29//69 141//70
f 6//72 10//72 145//72
f 29//73 14//73 148//74
f 13//3 157//3 37//77
f 157//3 2//76 37//77
f 52//79 47//79 2//79
f 2//79 157//78 52//79
f 157//78 4//80 50//80
f 4//80 43//80 50//80
f 48//28 131//28 132//28
f 132//28 61//28 60//28
f 43//27 122//27 124//27
f 124//27 57//27 56//27
f 125//28 123//28 47//28
f 54//28 55//28 125//28
f 31//153 18//154 8//155
f 35//81 30//118 16//82
f 17//84 38//87 72//85
f 38//87 9//94 73//88
f 29//89 34//98 13//90
f 37//92 39//102 14//91
f 38//87 42//100 26//93
f 33//95 35//81 28//83
f 12//96 27//117 35//81
f 7//97 21//156 34//98
f 33//95 17//84 79//86
f 17//84 28//83 42//100
f 5//157 19//158 41//159
f 20//101 6//160 39//102
f 8//103 12//96 75//104
f 16//82 30//118 143//106
f 9//94 5//115 71//108
f 15//109 32//114 76//110
f 36//112 15//109 77//111
f 32//114 8//103 74//105
f 5//115 36//112 70//113
f 12//96 33//95 78//99
f 42//100 40//119 10//116
f 27//117 11//161 30//118
f 28//83 16//82 40//119
f 30//118 11//161 144//120
f 10//116 40//119 149//121
f 40//119 16//82 150//107
f 151//123 154//127 155//124
f 153//126 156//162 154//127
s 0
usemtl Black
f 136//128 89//128 138//128
s 1
f 83//5 97//129 99//130
s 0
f 86//128 128//128 90//128
s 1
f 138//131 93//132 94//131
s 0
f 126//128 138//128 128//128
f 136//128 85//128 89//128
s 1
f 83//5 81//59 97//129
s 0
f 86//128 126//128 128//128
s 1
f 94//131 90//163 128//164
f 138//131 89//134 93//132
f 94//131 128//164 138//131
s 0
f 126//128 136//128 138//128
s 1
usemtl Window
f 84//6 99//130 100//6
s 0
f 88//133 90//133 92//133
f 85//133 91//133 89//133
f 127//133 92//133 129//133
s 1
f 89//134 95//135 93//132
f 92//136 94//136 96//137
f 82//56 100//138 98//139
f 81//58 98//139 97//140
s 0
f 137//133 129//133 139//133
f 87//133 139//133 91//133
s 1
f 91//68 140//141 95//142
f 129//143 96//144 140//141
f 84//6 83//5 99//130
s 0
f 88//133 86//133 90//133
f 85//133 87//133 91//133
f 127//133 88//133 92//133
s 1
f 89//134 91//22 95//135
f 92//136 90//165 94//136
f 82//56 84//55 100//138
f 81//58 82//56 98//139
s 0
f 137//133 127//133 129//133
f 87//133 137//133 139//133
s 1
f 91//68 139//143 140//141
f 140//141 139//143 129//143
f 129//143 92//68 96//144
usemtl Bumpers
f 158//28 163//28 162//28
f 116//145 159//146 119//147
f 160//27 161//27 164//27
