# Blender 4.3.2
# www.blender.org
mtllib P06-319157293_parabrisasTexturizado.mtl
o Car_Cube.010
v 0.809965 0.680562 0.432587
v 0.762465 0.635437 0.869736
v 0.269593 1.131811 0.301443
v 0.222093 1.086686 0.607446
v 0.762465 0.635437 -0.878858
v 0.222093 1.086686 -0.616569
v 0.809965 0.680562 -0.441710
v 0.809965 0.694812 -0.004561
v 0.269593 1.131811 -0.310565
v 0.269593 1.146061 -0.004561
vn 0.6108 0.7851 -0.1022
vn 0.5989 0.7795 -0.1837
vn 0.6305 0.7686 -0.1085
vn 0.6226 0.7757 0.1035
vn 0.6396 0.7687 -0.0013
vn 0.6162 0.7817 0.0961
vn 0.6391 0.7691 -0.0011
vn 0.5992 0.7841 0.1616
vn 0.5710 0.7982 0.1918
vn 0.5891 0.7955 -0.1419
vt 0.671961 0.647712
vt 0.698026 0.783437
vt 0.631041 0.783281
vt 0.406431 0.636603
vt 0.542971 0.782975
vt 0.458995 0.779508
vt 0.552142 0.639566
vt 0.260207 0.658255
vt 0.384888 0.790571
vt 0.747287 0.654926
s 1
usemtl Window
f 7/1/1 6/2/2 9/3/3
f 1/4/4 10/5/5 3/6/6
f 8/7/7 9/3/3 10/5/5
f 2/8/8 3/6/6 4/9/9
f 7/1/1 5/10/10 6/2/2
f 1/4/4 8/7/7 10/5/5
f 8/7/7 7/1/1 9/3/3
f 2/8/8 1/4/4 3/6/6
