# Blender 4.3.2
# www.blender.org
mtllib P06-319157293_cofreTexturizado.mtl
o Car_Cube.002
v -0.005168 0.003213 0.954983
v -0.005168 0.003213 -0.982517
v 1.347332 0.003213 -0.013767
v 0.044832 0.068213 -0.013767
v 1.332332 0.003213 -0.498720
v 0.044832 0.053213 -0.498142
v 0.044832 0.053213 0.470608
v 1.332332 0.003213 0.471102
vn 0.2232 0.8453 -0.4854
vn -0.3273 0.7901 -0.5183
vn 0.0445 0.9924 -0.1145
vn 0.0537 0.9961 0.0707
vn 0.0443 0.9990 -0.0000
vn 0.0581 0.9983 -0.0084
vn 0.0550 0.9983 -0.0178
vn -0.3158 0.8027 0.5058
vn 0.2375 0.8767 0.4184
vn 0.4483 0.8641 -0.2287
vt 0.701907 0.420174
vt 0.756171 0.649946
vt 0.615629 0.633403
vt 0.387717 0.629695
vt 0.505189 0.365096
vt 0.503002 0.627743
vt 0.253422 0.649647
vt 0.313437 0.416833
s 1
usemtl Body
f 5/1/1 2/2/2 6/3/3
f 7/4/4 3/5/5 4/6/6
f 3/5/5 6/3/7 4/6/6
f 1/7/8 8/8/9 7/4/4
f 7/4/4 8/8/9 3/5/5
f 3/5/5 5/1/10 6/3/7
